<svg width="335" height="317" viewBox="0 0 335 317" fill="none" xmlns="http://www.w3.org/2000/svg">
<path d="M50.25 0.0166774H284.75C298.077 0.0166774 310.858 5.28798 320.282 14.671C329.706 24.0539 335 36.78 335 50.0495V183.471C335 196.74 329.706 209.466 320.282 218.849C310.858 228.232 298.077 233.503 284.75 233.503H168.203L60.2665 313.689C57.7744 315.541 54.814 316.665 51.7167 316.936C48.6194 317.207 45.5074 316.614 42.7292 315.224C39.951 313.834 37.6162 311.702 35.9862 309.065C34.3562 306.429 33.4953 303.393 33.5 300.297V233.487C24.6152 233.487 16.0944 229.972 9.81192 223.717C3.52945 217.462 0 208.978 0 200.131V50.0329C0 36.7633 5.29418 24.0373 14.7179 14.6543C24.1416 5.2713 36.9229 0.0166774 50.25 0.0166774Z" fill="white" fill-opacity="0.03"/>
</svg>
